<svg width="220" height="78" viewBox="0 0 220 78" fill="none" xmlns="http://www.w3.org/2000/svg">
<rect width="220" height="78" fill="#04192B"/>
<path d="M88.7228 40V19.6364H93.6447V36.0028H102.116V40H88.7228ZM116.984 19.6364H121.896V32.7713C121.896 34.2893 121.535 35.6117 120.812 36.7386C120.089 37.8589 119.082 38.7273 117.789 39.3438C116.497 39.9536 114.995 40.2585 113.285 40.2585C111.555 40.2585 110.044 39.9536 108.751 39.3438C107.458 38.7273 106.454 37.8589 105.738 36.7386C105.022 35.6117 104.664 34.2893 104.664 32.7713V19.6364H109.586V32.3438C109.586 33.0464 109.739 33.6728 110.044 34.223C110.355 34.7732 110.789 35.2041 111.346 35.5156C111.903 35.8272 112.549 35.983 113.285 35.983C114.021 35.983 114.664 35.8272 115.214 35.5156C115.771 35.2041 116.205 34.7732 116.517 34.223C116.828 33.6728 116.984 33.0464 116.984 32.3438V19.6364ZM142.312 19.6364V40H138.135L130.032 28.2472H129.903V40H124.981V19.6364H129.216L137.231 31.3693H137.4V19.6364H142.312ZM145.406 40V19.6364H159.605V23.6335H150.328V27.8097H158.879V31.8168H150.328V36.0028H159.605V40H145.406ZM167.669 19.6364L171.388 26.0696H171.547L175.306 19.6364H180.814L174.669 29.8182L181.013 40H175.365L171.547 33.4972H171.388L167.57 40H161.962L168.276 29.8182L162.121 19.6364H167.669Z" fill="white"/>
<path d="M88.4837 56V44.3636H90.5916V49.2898H95.9837V44.3636H98.0973V56H95.9837V51.0568H90.5916V56H88.4837ZM99.8786 46.1307V44.3636H109.163V46.1307H105.566V56H103.475V46.1307H99.8786ZM110.441 46.1307V44.3636H119.725V46.1307H116.129V56H114.038V46.1307H110.441ZM121.515 56V44.3636H125.879C126.772 44.3636 127.522 44.5303 128.129 44.8636C128.738 45.197 129.199 45.6553 129.509 46.2386C129.824 46.8182 129.981 47.4773 129.981 48.2159C129.981 48.9621 129.824 49.625 129.509 50.2045C129.195 50.7841 128.731 51.2405 128.117 51.5739C127.504 51.9034 126.748 52.0682 125.85 52.0682H122.958V50.3352H125.566C126.089 50.3352 126.517 50.2443 126.85 50.0625C127.183 49.8807 127.43 49.6307 127.589 49.3125C127.752 48.9943 127.833 48.6288 127.833 48.2159C127.833 47.803 127.752 47.4394 127.589 47.125C127.43 46.8106 127.182 46.5663 126.844 46.392C126.511 46.214 126.081 46.125 125.555 46.125H123.623V56H121.515Z" fill="#FFD700"/>
<path d="M59 56C70.0457 56 79 47.4934 79 37C79 26.5066 70.0457 18 59 18C47.9543 18 39 26.5066 39 37C39 47.4934 47.9543 56 59 56Z" stroke="#FFA500" stroke-linecap="round" stroke-linejoin="round"/>
<path d="M58.945 41.4938C57.8331 42.9588 56.0478 43.8269 54.1466 43.8269C50.8795 43.8269 48.231 41.3109 48.231 38.2072C48.231 35.1034 50.8795 32.5874 54.1466 32.5874C57.4137 32.5874 60.0621 35.1034 60.0621 38.2072C60.0621 38.5752 60.0241 38.9424 59.9484 39.3035" stroke="#FFA500" stroke-linecap="round" stroke-linejoin="round"/>
<path d="M68.5712 33.4491C70.1452 33.4491 71.4212 32.2369 71.4212 30.7416C71.4212 29.2463 70.1452 28.0342 68.5712 28.0342C66.9973 28.0342 65.7213 29.2463 65.7213 30.7416C65.7213 32.2369 66.9973 33.4491 68.5712 33.4491Z" stroke="#FFA500" stroke-linecap="round" stroke-linejoin="round"/>
<path d="M49.9801 29.1583C51.0085 29.1583 51.8421 28.3664 51.8421 27.3895C51.8421 26.4125 51.0085 25.6206 49.9801 25.6206C48.9518 25.6206 48.1182 26.4125 48.1182 27.3895C48.1182 28.3664 48.9518 29.1583 49.9801 29.1583Z" stroke="#FFA500" stroke-linecap="round" stroke-linejoin="round"/>
<path d="M64.2756 25.3294C65.0318 25.3294 65.6449 24.7469 65.6449 24.0285C65.6449 23.31 65.0318 22.7275 64.2756 22.7275C63.5193 22.7275 62.9062 23.31 62.9062 24.0285C62.9062 24.7469 63.5193 25.3294 64.2756 25.3294Z" stroke="#FFA500" stroke-linecap="round" stroke-linejoin="round"/>
<path d="M75.5651 37.4518C76.0713 37.4518 76.4816 36.745 76.4816 35.8731C76.4816 35.0012 76.0713 34.2944 75.5651 34.2944C75.0589 34.2944 74.6485 35.0012 74.6485 35.8731C74.6485 36.745 75.0589 37.4518 75.5651 37.4518Z" stroke="#FFA500" stroke-linecap="round" stroke-linejoin="round"/>
<path d="M74.0178 45.85C74.5413 45.85 74.9656 45.2165 74.9656 44.435C74.9656 43.6535 74.5413 43.02 74.0178 43.02C73.4943 43.02 73.07 43.6535 73.07 44.435C73.07 45.2165 73.4943 45.85 74.0178 45.85Z" stroke="#FFA500" stroke-linecap="round" stroke-linejoin="round"/>
<path d="M62.3199 47.6573C63.3583 47.6573 64.2 46.8576 64.2 45.8711C64.2 44.8847 63.3583 44.085 62.3199 44.085C61.2815 44.085 60.4397 44.8847 60.4397 45.8711C60.4397 46.8576 61.2815 47.6573 62.3199 47.6573Z" stroke="#FFA500" stroke-linecap="round" stroke-linejoin="round"/>
<path d="M55.18 53.9962C56.3388 53.9962 57.2782 53.1038 57.2782 52.003C57.2782 50.9022 56.3388 50.0098 55.18 50.0098C54.0212 50.0098 53.0819 50.9022 53.0819 52.003C53.0819 53.1038 54.0212 53.9962 55.18 53.9962Z" stroke="#FFA500" stroke-linecap="round" stroke-linejoin="round"/>
<path d="M45.3585 43.3819C45.9715 43.3819 46.4684 42.9098 46.4684 42.3274C46.4684 41.745 45.9715 41.2729 45.3585 41.2729C44.7455 41.2729 44.2485 41.745 44.2485 42.3274C44.2485 42.9098 44.7455 43.3819 45.3585 43.3819Z" stroke="#FFA500" stroke-linecap="round" stroke-linejoin="round"/>
<path d="M54.4166 21.6559C55.239 21.6559 55.9057 21.3392 55.9057 20.9485C55.9057 20.5579 55.239 20.2412 54.4166 20.2412C53.5942 20.2412 52.9275 20.5579 52.9275 20.9485C52.9275 21.3392 53.5942 21.6559 54.4166 21.6559Z" stroke="#FFA500" stroke-linecap="round" stroke-linejoin="round"/>
<path d="M61.3439 51.3265C61.8324 51.3265 62.2283 50.9503 62.2283 50.4862C62.2283 50.0222 61.8324 49.646 61.3439 49.646C60.8554 49.646 60.4594 50.0222 60.4594 50.4862C60.4594 50.9503 60.8554 51.3265 61.3439 51.3265Z" stroke="#FFA500" stroke-linecap="round" stroke-linejoin="round"/>
<path d="M54.6032 37.3607C55.3298 37.3607 55.9189 36.8011 55.9189 36.1108C55.9189 35.4205 55.3298 34.8608 54.6032 34.8608C53.8765 34.8608 53.2874 35.4205 53.2874 36.1108C53.2874 36.8011 53.8765 37.3607 54.6032 37.3607Z" stroke="#FFA500" stroke-linecap="round" stroke-linejoin="round"/>
<path d="M60.0913 41.8102C60.8064 41.8102 61.3861 41.2595 61.3861 40.5801C61.3861 39.9008 60.8064 39.3501 60.0913 39.3501C59.3762 39.3501 58.7965 39.9008 58.7965 40.5801C58.7965 41.2595 59.3762 41.8102 60.0913 41.8102Z" stroke="#FFA500" stroke-linecap="round" stroke-linejoin="round"/>
<path d="M58.4332 55.9923C54.1012 50.5724 51.7444 43.8697 51.7444 36.9648C51.7444 30.1169 54.0626 23.4651 58.331 18.0659" stroke="#FFA500" stroke-linecap="round" stroke-linejoin="round"/>
</svg>
